<svg width="835" height="237" viewBox="0 0 835 237" fill="none" xmlns="http://www.w3.org/2000/svg">
<path fill-rule="evenodd" clip-rule="evenodd" d="M162.042 177.59C174.813 182.793 184.891 200.771 200.218 210.989C201.168 211.622 202.118 211.939 202.752 211.939C204.019 211.939 205.603 210.672 205.603 204.97C205.603 185.328 199.267 175.824 193.882 161.885C175.19 113.414 143.194 71.9136 114.682 26.6112C112.464 23.1264 111.197 19.3248 111.197 15.2064C111.197 11.7216 112.464 8.8704 114.048 5.3856C115.315 2.5344 121.018 0 127.354 0C130.838 0 134.006 0.3168 138.125 0.3168C153.014 0.3168 156.182 22.176 159.667 27.8784C183.427 68.112 210.672 117.85 224.611 153.014C227.668 160.897 230.97 168.781 233.479 176.871C247.254 180.86 257.573 200.228 273.715 210.989C274.666 211.622 275.616 211.939 276.25 211.939C277.517 211.939 279.101 210.672 279.101 204.97C279.101 185.328 272.765 175.824 267.379 161.885C248.688 113.414 216.691 71.9136 188.179 26.6112C185.962 23.1264 184.694 19.3248 184.694 15.2064C184.694 11.7216 185.962 8.8704 187.546 5.3856C188.813 2.5344 194.515 0 200.851 0C204.336 0 207.504 0.3168 211.622 0.3168C226.512 0.3168 229.68 22.176 233.165 27.8784C256.925 68.112 284.17 117.85 298.109 153.014C299.217 155.872 300.357 158.73 301.48 161.598C301.827 161.783 302.181 161.984 302.544 162.202C318.701 171.706 332.323 188.496 351.965 199.901C355.766 202.118 367.488 210.355 376.992 210.355C379.21 210.355 381.11 209.722 383.011 208.771C385.862 207.504 388.714 201.485 388.714 199.584C388.714 198 388.397 197.683 385.229 195.782C357.35 178.992 334.541 154.915 314.899 130.838C307.613 121.968 298.109 104.544 298.109 91.872C298.109 83.6352 300.96 74.1312 310.781 70.6464C317.75 68.112 325.67 66.8448 332.006 66.8448C348.797 66.8448 361.152 74.448 368.122 81.7344C375.217 89.3093 382.08 97.0873 388.457 105.139C395.119 99.3869 404.516 96.9408 413.424 96.9408C423.878 96.9408 443.52 109.93 453.658 117.533C455.242 118.8 456.192 119.434 456.826 119.434C457.142 119.434 457.459 119.117 457.459 118.483C457.459 118.166 456.826 115.315 456.826 110.246C456.826 105.811 457.776 100.109 461.894 93.1392C462.845 91.5552 468.547 88.0704 475.517 88.0704C484.07 88.0704 491.99 92.1888 491.99 96.624C491.99 99.792 489.139 101.059 489.139 103.91C489.139 105.494 490.406 112.781 492.307 119.75C497.693 140.026 504.346 159.984 511.315 179.942C515.117 191.03 527.789 200.851 527.789 212.89C527.789 216.691 525.254 221.76 521.77 225.562C516.067 231.898 512.582 234.115 507.514 234.115C505.296 234.115 502.762 233.482 500.544 231.581C495.792 227.462 493.258 223.344 491.99 217.642C483.754 180.259 459.994 154.915 433.699 138.125C424.829 132.422 412.79 126.403 411.206 126.403C409.582 126.403 407.042 127.153 404.482 127.883C411.832 139.872 417.788 152.515 421.661 166.003C422.928 170.438 423.562 174.557 423.562 178.992C423.562 186.278 421.978 193.882 419.443 201.168C415.958 211.306 410.256 220.176 402.336 224.294C387.763 231.898 377.309 236.016 367.805 236.016C362.419 236.016 358.301 235.066 353.866 232.531C333.043 220.75 320.277 211.812 311.059 203.874C310.806 211.923 309.219 216.382 303.494 222.394C297.792 228.413 288.922 233.798 277.2 236.333C275.299 236.65 273.398 236.966 271.498 236.966C258.086 236.966 245.18 226.066 235.228 215.26C234.076 217.618 232.401 219.869 229.997 222.394C224.294 228.413 215.424 233.798 203.702 236.333C201.802 236.65 199.901 236.966 198 236.966C182.29 236.966 167.273 222.009 156.886 209.767C153.424 216.928 143.749 224.007 132.106 229.68C128.938 231.264 125.136 232.214 121.651 232.214C108.029 232.214 98.2079 221.126 90.6047 212.89C70.9631 191.347 60.1919 164.736 51.9551 131.155C51.3215 128.621 50.3711 127.67 49.1039 127.67C45.9359 127.67 41.8175 127.67 37.3823 127.037C28.8287 125.77 22.1759 122.918 14.2559 121.651C9.50392 120.701 10.1375 119.117 5.70233 117.533C2.53433 116.266 -6.10352e-05 114.998 -6.10352e-05 111.83C-6.10352e-05 106.445 9.82073 100.742 24.7103 100.742C36.4319 100.742 43.4016 101.693 48.1536 101.693C55.44 101.693 57.3407 99.4752 62.0927 87.12C62.0927 87.12 57.3407 99.4752 62.0927 87.12C63.0431 84.5856 63.9935 83.3184 66.8447 80.784C73.4975 75.0816 81.7343 73.1808 88.3871 73.1808C104.227 73.1808 117.85 89.3376 127.354 102.96C129.571 106.128 132.739 108.662 134.957 112.147C148.007 131.722 160.501 153.796 162.042 177.59ZM567.072 69.696C559.152 69.696 554.717 69.0624 553.766 69.0624C552.816 69.0624 552.182 69.3792 552.182 70.3296C552.182 70.9632 552.499 71.9136 554.717 76.6656C574.042 118.166 587.347 160.301 599.069 206.87C599.386 208.138 600.336 212.89 600.336 217.642C600.336 222.077 599.069 226.829 594.634 229.363C586.08 234.432 579.11 236.65 574.358 236.65C567.389 236.65 563.904 232.214 563.904 224.928C563.904 218.592 563.587 211.939 562.637 206.87C553.766 160.301 540.461 123.869 519.869 85.8528C510.048 67.7952 508.781 66.8448 508.781 65.2608C508.781 64.6272 509.098 63.6768 509.731 62.7264C497.059 59.8752 481.853 57.9744 467.914 57.9744C466.33 57.9744 459.994 60.192 459.043 61.1424C456.826 63.36 454.608 65.5776 450.806 65.5776C447.638 65.5776 442.253 63.36 440.352 62.0928C435.917 58.9248 433.699 55.44 433.699 49.7376C433.699 44.352 453.658 31.0464 467.597 31.0464C484.704 31.0464 500.227 33.264 514.8 36.1152C521.136 37.3824 543.946 40.8672 560.419 40.8672C576.259 40.8672 575.309 38.6496 581.962 38.6496C585.763 38.6496 587.664 40.5504 589.248 42.1344C590.832 43.7184 591.782 50.0544 591.782 55.7568C591.782 58.608 591.782 60.8256 590.198 62.7264C585.446 68.4288 576.259 69.696 567.072 69.696C576.259 69.696 567.072 69.696 567.072 69.696ZM332.323 95.3568C332.323 98.208 333.274 100.109 337.075 106.128C340.877 112.147 339.293 112.147 344.045 118.483C353.232 130.838 364.637 143.194 379.526 156.816C383.645 160.618 384.278 160.618 384.912 160.618C385.229 160.618 385.862 160.301 385.862 159.667C385.862 158.717 385.546 157.45 382.378 150.797C372.557 130.205 360.518 116.582 347.213 103.277C339.926 95.9904 335.491 93.456 333.907 93.456C332.957 93.456 332.323 93.7728 332.323 95.3568C332.323 93.7728 332.323 95.3568 332.323 95.3568ZM88.7039 103.594C88.3871 103.594 88.0703 103.91 87.7535 104.544C87.4367 105.494 86.8031 106.445 85.2191 107.712C83.9519 108.662 83.952 113.098 83.952 116.582C83.952 147.312 101.376 172.656 118.483 198.317C122.285 204.019 124.502 204.97 126.403 204.97C127.987 204.97 130.522 200.851 131.472 198.317C132.739 194.832 133.056 190.714 133.056 189.13C133.056 164.419 109.613 127.67 94.0895 107.395C91.5551 103.91 89.6543 103.594 88.7039 103.594C89.6543 103.594 88.7039 103.594 88.7039 103.594Z" fill="#0079BF"/>
<path d="M660.336 35H810.336C824.143 35 835.336 46.1929 835.336 60V210C835.336 223.807 824.143 235 810.336 235H660.336C646.529 235 635.336 223.807 635.336 210V60C635.336 46.1929 646.529 35 660.336 35Z" fill="url(#paint0_linear)"/>
<path d="M673.336 61H710.336C716.963 61 722.336 66.3726 722.336 73V136.5C722.336 143.127 716.963 148.5 710.336 148.5H673.336C666.709 148.5 661.336 143.127 661.336 136.5V73C661.336 66.3726 666.709 61 673.336 61Z" fill="white"/>
<path d="M760.336 61H797.336C803.963 61 809.336 66.3726 809.336 73V186.5C809.336 193.127 803.963 198.5 797.336 198.5H760.336C753.709 198.5 748.336 193.127 748.336 186.5V73C748.336 66.3726 753.709 61 760.336 61Z" fill="white"/>
<defs>
<linearGradient id="paint0_linear" x1="735.336" y1="35" x2="735.336" y2="235" gradientUnits="userSpaceOnUse">
<stop stop-color="#0079BF"/>
<stop offset="1" stop-color="#0079BF"/>
</linearGradient>
</defs>
</svg>
